# File created by Blade
# Date/Time:  Thu Sep 25 19:36:54 2014
# Frame Rate: 120.000 fps
#------------------------------------------------------
:FULLY-SPECIFIED
:DEGREES
885
root -0.477999 33.663426 3.229805 40.382346 -24.901257 -21.336445
Spine -24.651603 0.354815 19.222861
Head -8.282286 27.837130 9.724206
LeftShoulder -11.680802 21.272910 12.411975
LeftArm 36.749374 22.829769 -47.607947
LeftForeArm 14.104881 0.000000 26.840851
LeftHand -24.468445 -0.000000 -10.148127
LeftHandThumb1 -26.253704 0.000000 33.147579
RightShoulder -25.589083 0.702342 -28.540446
RightArm -32.797289 -22.456973 60.473453
RightForeArm -36.556060 0.000000 13.343802
RightHand -0.560751 0.000000 19.597472
RightHandThumb1 -24.326973 -0.000000 -32.862282
LeftUpLeg -22.104651 18.497809 4.718081
LeftLeg -6.192462 -0.000000 0.000000
LeftFoot -12.143745 19.144548 -12.835589
LeftToeBase 9.077063 -0.000000 -0.000000
RightUpLeg 15.941926 22.445897 -25.127599
RightLeg 107.559406 -0.000000 -0.000000
RightFoot 24.051968 -16.613184 18.043508
RightToeBase 10.980604 -0.000000 -0.000000
886
root -0.481268 33.644757 3.256891 39.896174 -24.882329 -20.991962
Spine -24.729597 0.338284 19.255496
Head -7.899351 27.705743 9.594739
LeftShoulder -11.671717 21.098411 12.187353
LeftArm 36.378799 23.568863 -48.265020
LeftForeArm 13.857613 -0.000000 26.570007
LeftHand -24.094458 -0.000000 -10.303338
LeftHandThumb1 -26.253704 0.000000 33.147579
RightShoulder -25.705786 0.641234 -28.468283
RightArm -32.632293 -22.390421 60.476221
RightForeArm -36.384551 -0.000000 13.369424
RightHand -0.611922 -0.000000 19.562817
RightHandThumb1 -24.326973 -0.000000 -32.862282
LeftUpLeg -21.724852 18.176635 4.623407
LeftLeg -6.162444 -0.000000 0.000000
LeftFoot -12.205848 19.209620 -12.667580
LeftToeBase 9.216446 -0.000000 -0.000000
RightUpLeg 15.716188 22.317002 -24.998202
RightLeg 107.762583 -0.000000 -0.000000
RightFoot 24.130218 -16.611989 18.091354
RightToeBase 10.967315 -0.000000 -0.000000
887
root -0.489165 33.626169 3.286168 39.364079 -24.851155 -20.663874
Spine -24.762695 0.304894 19.299465
Head -7.423759 27.615846 9.562786
LeftShoulder -11.601517 20.857087 11.958716
LeftArm 35.862563 24.272576 -48.970897
LeftForeArm 13.702559 -0.000000 26.391327
LeftHand -23.796158 -0.000000 -10.688649
LeftHandThumb1 -26.253704 0.000000 33.147579
RightShoulder -25.681906 0.672056 -28.375193
RightArm -32.701690 -22.332363 60.556139
RightForeArm -36.375597 -0.000000 13.424202
RightHand -0.698043 0.000000 19.575936
RightHandThumb1 -24.326973 -0.000000 -32.862282
LeftUpLeg -21.327061 18.077270 4.437792
LeftLeg -6.132729 -0.000000 0.000000
LeftFoot -12.235998 19.053652 -12.611781
LeftToeBase 9.152077 -0.000000 -0.000000
RightUpLeg 15.556466 22.215348 -24.812958
RightLeg 107.969545 -0.000000 -0.000000
RightFoot 24.146186 -16.572668 18.147530
RightToeBase 10.885537 -0.000000 -0.000000
888
root -0.494654 33.608680 3.310318 38.866372 -24.797514 -20.330004
Spine -24.787893 0.308135 19.353776
Head -7.138157 27.436009 9.364678
LeftShoulder -11.622472 20.746546 11.616616
LeftArm 35.644387 24.944609 -49.420173
LeftForeArm 13.556256 -0.000000 26.177302
LeftHand -23.612510 -0.000000 -10.875782
LeftHandThumb1 -26.253704 0.000000 33.147579
RightShoulder -25.727034 0.696953 -28.267319
RightArm -32.729743 -22.416538 60.665136
RightForeArm -36.162747 -0.000000 13.419536
RightHand -0.666368 -0.000000 19.606778
RightHandThumb1 -24.326973 -0.000000 -32.862282
LeftUpLeg -21.003313 17.929247 4.266617
LeftLeg -6.041656 -0.000000 0.000000
LeftFoot -12.263129 19.009083 -12.299890
LeftToeBase 9.296921 -0.000000 -0.000000
RightUpLeg 15.371401 22.108853 -24.621341
RightLeg 108.202364 -0.000000 -0.000000
RightFoot 24.000962 -16.563738 18.296101
RightToeBase 10.948797 -0.000000 -0.000000
889
root -0.497870 33.591172 3.330168 38.366902 -24.703859 -19.972995
Spine -24.829185 0.237201 19.420525
Head -6.823717 27.292518 9.201945
LeftShoulder -11.607447 20.675220 11.294629
LeftArm 35.411182 25.624713 -49.796157
LeftForeArm 13.303320 -0.000000 26.009724
LeftHand -23.466585 0.000000 -11.233588
LeftHandThumb1 -26.253704 0.000000 33.147579
RightShoulder -25.778104 0.796258 -28.208293
RightArm -32.736714 -22.508340 60.772024
RightForeArm -35.984137 -0.000000 13.399532
RightHand -0.685590 -0.000000 19.461123
RightHandThumb1 -24.326973 -0.000000 -32.862282
LeftUpLeg -20.697071 17.679147 4.119900
LeftLeg -5.946294 -0.000000 0.000000
LeftFoot -12.318741 18.965198 -12.209423
LeftToeBase 9.124635 -0.000000 -0.000000
RightUpLeg 15.194382 21.941316 -24.447587
RightLeg 108.425512 -0.000000 -0.000000
RightFoot 23.835921 -16.592325 18.324724
RightToeBase 11.024193 -0.000000 -0.000000
890
root -0.500725 33.572928 3.351219 37.859146 -24.606588 -19.592065
Spine -24.878977 0.157844 19.473486
Head -6.480313 27.175466 9.027342
LeftShoulder -11.628330 20.640872 10.966679
LeftArm 35.245072 26.235533 -50.213105
LeftForeArm 13.158687 0.000000 25.819160
LeftHand -23.417223 -0.000000 -11.553815
LeftHandThumb1 -26.253704 0.000000 33.147579
RightShoulder -25.784791 0.891008 -28.133758
RightArm -32.793181 -22.619210 60.893880
RightForeArm -35.803707 -0.000000 13.410588
RightHand -0.758405 -0.000000 19.531605
RightHandThumb1 -24.326973 -0.000000 -32.862282
LeftUpLeg -20.381439 17.365131 3.980339
LeftLeg -5.856779 -0.000000 0.000000
LeftFoot -12.403170 18.985993 -12.135158
LeftToeBase 9.190140 -0.000000 -0.000000
RightUpLeg 15.025518 21.802737 -24.265507
RightLeg 108.638871 -0.000000 -0.000000
RightFoot 23.686015 -16.608226 18.376428
RightToeBase 10.930126 -0.000000 -0.000000
891
root -0.501563 33.553359 3.370741 37.319913 -24.515466 -19.188326
Spine -24.885080 0.083323 19.480183
Head -6.176670 27.053617 8.881904
LeftShoulder -11.620661 20.585676 10.673658
LeftArm 35.104923 26.918774 -50.561296
LeftForeArm 12.958710 -0.000000 25.630324
LeftHand -23.429128 -0.000000 -11.632417
LeftHandThumb1 -26.253704 0.000000 33.147579
RightShoulder -25.751956 0.860188 -27.983774
RightArm -32.750312 -22.612030 61.005835
RightForeArm -35.598588 -0.000000 13.364194
RightHand -0.762714 -0.000000 19.394530
RightHandThumb1 -24.326973 -0.000000 -32.862282
LeftUpLeg -20.023901 16.978606 3.857764
LeftLeg -5.781242 -0.000000 0.000000
LeftFoot -12.528907 18.971306 -12.151201
LeftToeBase 9.312650 -0.000000 -0.000000
RightUpLeg 14.882872 21.672972 -24.117114
RightLeg 108.878435 -0.000000 -0.000000
RightFoot 23.400746 -16.592963 18.380128
RightToeBase 11.013676 -0.000000 -0.000000
892
root -0.502914 33.533114 3.388617 36.766275 -24.410802 -18.774961
Spine -24.876299 -0.035343 19.480941
Head -5.845504 26.960862 8.753742
LeftShoulder -11.573898 20.512091 10.460940
LeftArm 34.836079 27.521463 -51.098847
LeftForeArm 12.775862 -0.000000 25.494622
LeftHand -23.345869 -0.000000 -11.774962
LeftHandThumb1 -26.253704 0.000000 33.147579
RightShoulder -25.779469 0.893950 -27.886083
RightArm -32.630110 -22.623445 61.086186
RightForeArm -35.418242 -0.000000 13.310017
RightHand -0.744293 -0.000000 19.687764
RightHandThumb1 -24.326973 -0.000000 -32.862282
LeftUpLeg -19.657266 16.539483 3.744878
LeftLeg -5.704660 -0.000000 0.000000
LeftFoot -12.626112 19.071751 -12.125614
LeftToeBase 9.350773 -0.000000 -0.000000
RightUpLeg 14.768848 21.536794 -23.958078
RightLeg 109.109192 -0.000000 -0.000000
RightFoot 23.108051 -16.604860 18.292293
RightToeBase 10.867817 -0.000000 -0.000000
893
root -0.508377 33.515372 3.404252 36.220701 -24.286160 -18.385135
Spine -24.852648 -0.147112 19.505035
Head -5.541334 26.869712 8.611623
LeftShoulder -11.513225 20.482575 10.249857
LeftArm 34.643722 28.183240 -51.506671
LeftForeArm 12.595209 -0.000000 25.385545
LeftHand -23.474417 -0.000000 -11.810821
LeftHandThumb1 -26.253704 0.000000 33.147579
RightShoulder -25.782365 0.885563 -27.759912
RightArm -32.501962 -22.579042 61.168568
RightForeArm -35.410593 -0.000000 13.238256
RightHand -0.649791 0.000000 19.809977
RightHandThumb1 -24.326973 -0.000000 -32.862282
LeftUpLeg -19.294173 16.118901 3.669927
LeftLeg -5.616554 -0.000000 0.000000
LeftFoot -12.540524 19.167780 -11.863865
LeftToeBase 9.039735 -0.000000 -0.000000
RightUpLeg 14.650340 21.416355 -23.742066
RightLeg 109.396012 -0.000000 -0.000000
RightFoot 22.689597 -16.528342 18.207100
RightToeBase 10.884714 -0.000000 -0.000000
894
root -0.507668 33.498988 3.415926 35.715291 -24.204328 -18.014994
Spine -24.813462 -0.219112 19.542332
Head -5.288041 26.841903 8.405311
LeftShoulder -11.578780 20.532082 9.996623
LeftArm 34.589295 28.736137 -51.984736
LeftForeArm 12.360271 -0.000000 25.231963
LeftHand -23.604628 -0.000000 -11.795891
LeftHandThumb1 -26.253704 0.000000 33.147579
RightShoulder -25.778429 0.928673 -27.650131
RightArm -32.385604 -22.665018 61.309083
RightForeArm -35.044286 -0.000000 13.169044
RightHand -0.646337 0.000000 20.200711
RightHandThumb1 -24.326973 -0.000000 -32.862282
LeftUpLeg -18.968366 15.737414 3.559308
LeftLeg -5.531349 -0.000000 0.000000
LeftFoot -12.601395 19.241545 -11.812866
LeftToeBase 8.988012 -0.000000 -0.000000
RightUpLeg 14.430681 21.312137 -23.595875
RightLeg 109.710569 -0.000000 -0.000000
RightFoot 22.306760 -16.442645 17.682488
RightToeBase 11.130459 -0.000000 -0.000000
895
root -0.503383 33.488294 3.416795 35.284488 -24.157265 -17.722158
Spine -24.744352 -0.166480 19.590359
Head -5.098543 26.799089 8.195008
LeftShoulder -11.504940 20.372861 9.865123
LeftArm 34.303591 29.373864 -52.608989
LeftForeArm 12.142533 0.000000 25.063883
LeftHand -23.480751 -0.000000 -11.706376
LeftHandThumb1 -26.253704 0.000000 33.147579
RightShoulder -25.814701 0.970743 -27.506779
RightArm -32.236678 -22.764998 61.454942
RightForeArm -34.783107 0.000000 13.046736
RightHand -0.547962 0.000000 20.180186
RightHandThumb1 -24.326973 -0.000000 -32.862282
LeftUpLeg -18.708188 15.451319 3.465500
LeftLeg -5.436796 -0.000000 0.000000
LeftFoot -12.744402 19.244900 -11.950614
LeftToeBase 9.214915 -0.000000 -0.000000
RightUpLeg 14.078807 21.279945 -23.444609
RightLeg 110.134611 -0.000000 -0.000000
RightFoot 21.846651 -16.377120 17.579938
RightToeBase 10.799346 -0.000000 -0.000000
896
root -0.503677 33.473517 3.421258 34.769512 -24.066673 -17.397475
Spine -24.607991 -0.231271 19.662201
Head -4.924519 26.832666 7.923837
LeftShoulder -11.445558 20.268904 9.722184
LeftArm 33.980093 29.936847 -53.269103
LeftForeArm 11.861822 -0.000000 25.019508
LeftHand -23.415305 -0.000000 -11.738003
LeftHandThumb1 -26.253704 0.000000 33.147579
RightShoulder -25.891740 0.987894 -27.429070
RightArm -31.936244 -22.769816 61.580985
RightForeArm -34.587091 -0.000000 12.916088
RightHand -0.505615 -0.000000 20.414166
RightHandThumb1 -24.326973 -0.000000 -32.862282
LeftUpLeg -18.374318 15.168932 3.363185
LeftLeg -5.354946 -0.000000 0.000000
LeftFoot -12.825704 19.263111 -11.958245
LeftToeBase 9.259573 -0.000000 -0.000000
RightUpLeg 13.845306 21.202345 -23.244849
RightLeg 110.523478 -0.000000 -0.000000
RightFoot 21.408535 -16.338476 17.176213
RightToeBase 10.843534 -0.000000 -0.000000
